<?xml version="1.0" standalone="no"?>
<!DOCTYPE svg PUBLIC "-//W3C//DTD SVG 20010904//EN"
 "http://www.w3.org/TR/2001/REC-SVG-20010904/DTD/svg10.dtd">
<svg version="1.0" xmlns="http://www.w3.org/2000/svg"
 width="229.000000pt" height="229.000000pt" viewBox="0 0 229.000000 229.000000"
 preserveAspectRatio="xMidYMid meet">
<metadata>
Created by potrace 1.14, written by Peter Selinger 2001-2017
</metadata>
<g transform="translate(0.000000,229.000000) scale(0.100000,-0.100000)"
fill="#000000" stroke="none">
<path d="M1108 2278 c-9 -7 -68 -92 -130 -188 -139 -212 -279 -425 -463 -705
-76 -115 -140 -220 -143 -231 -2 -12 2 -32 8 -44 9 -17 175 -272 301 -460 5
-8 97 -148 203 -310 247 -376 220 -341 264 -337 42 3 13 -36 352 480 118 180
261 398 318 483 56 86 102 166 102 177 0 19 -164 284 -200 325 -7 7 -17 23
-24 35 -6 12 -59 94 -117 182 -58 88 -166 252 -241 365 -74 113 -142 213 -152
223 -20 20 -56 22 -78 5z"/>
</g>
</svg>
